<?xml version="1.0" standalone="no"?>
<!DOCTYPE svg PUBLIC "-//W3C//DTD SVG 20010904//EN"
 "http://www.w3.org/TR/2001/REC-SVG-20010904/DTD/svg10.dtd">
<svg version="1.0" xmlns="http://www.w3.org/2000/svg"
 width="260.000000pt" height="260.000000pt" viewBox="0 0 260.000000 260.000000"
 preserveAspectRatio="xMidYMid meet">
<metadata>
Created by potrace 1.11, written by Peter Selinger 2001-2013
</metadata>
<g transform="translate(0.000000,260.000000) scale(0.100000,-0.100000)"
fill="#000000" stroke="none">
<path d="M0 1300 l0 -1300 1300 0 1300 0 0 1300 0 1300 -1300 0 -1300 0 0
-1300z m2500 0 l0 -1200 -1200 0 -1200 0 0 1200 0 1200 1200 0 1200 0 0 -1200z"/>
<path d="M1695 2287 c-3 -7 -4 -85 -3 -172 l3 -160 203 -3 202 -2 -2 172 -3
173 -198 3 c-156 2 -199 0 -202 -11z"/>
<path d="M883 1875 c-231 -62 -383 -283 -383 -555 0 -230 108 -424 285 -511
68 -33 72 -34 195 -34 117 0 129 2 187 29 38 17 80 47 105 74 l41 45 -6 -70
c-14 -149 -74 -218 -212 -244 -100 -18 -249 25 -345 101 l-37 30 -107 -115
-106 -114 62 -50 c121 -99 252 -147 424 -158 306 -18 567 105 669 318 19 41
38 91 41 112 l7 37 198 0 199 0 0 550 0 550 -370 0 -370 0 0 -71 0 -71 -44 45
c-76 79 -177 117 -306 116 -41 0 -99 -7 -127 -14z m292 -344 c22 -10 54 -33
72 -51 52 -53 63 -87 63 -192 l0 -94 -42 -41 c-51 -50 -83 -63 -148 -63 -64 0
-97 13 -143 58 -88 85 -86 252 5 342 60 61 122 74 193 41z"/>
</g>
</svg>
